<svg xmlns="http://www.w3.org/2000/svg" xmlns:xlink="http://www.w3.org/1999/xlink" width="110" height="110" viewBox="0 0 110 110"><defs><style>.a{clip-path:url(#d);}.b{fill:url(#a);}.c{font-size:7px;font-family:BebasNeue-Regular, Bebas Neue;}.d{fill:#fff;}</style><linearGradient id="a" x1="0.5" x2="0.5" y2="1" gradientUnits="objectBoundingBox"><stop offset="0"/><stop offset="1" stop-color="red"/></linearGradient><clipPath id="d"><rect width="110" height="110"/></clipPath></defs><g id="c" class="a"><rect class="d" width="110" height="110"/><g transform="translate(-64.32 -507.1)"><g transform="translate(76.32 541.1)"><g transform="translate(1)"><path class="b" d="M1048.657,4349.291l12.623-17.875a3.493,3.493,0,0,0,0-3,24.3,24.3,0,0,0-2.805-4.721h18.35l9,14.548,10.533-14.548h10.15l-7.916,11.424,23.3-11.424h13.725l-25.535,12.661,7.725,12.952h-14.491l-9.257-14.189v5.858l-5.873,8.331H1077.91l-8.81-14.189-10.278,14.189Z" transform="translate(-1048.657 -4323.694)"/><g transform="translate(19.66 25.181)"><text class="c" transform="translate(17 7)"><tspan x="-17.129" y="0">HEALTH &amp; SPORT</tspan><tspan x="-0.56" y="7"> </tspan></text><path class="b" d="M4.681,9.227a1.017,1.017,0,0,1-.777-.28,1.127,1.127,0,0,1-.263-.8V7.9h.668v.3q0,.418.366.418a.352.352,0,0,0,.273-.1.478.478,0,0,0,.093-.329.882.882,0,0,0-.128-.477,2.312,2.312,0,0,0-.475-.495,2.762,2.762,0,0,1-.61-.667,1.314,1.314,0,0,1-.173-.673,1.092,1.092,0,0,1,.27-.79,1.039,1.039,0,0,1,.784-.28,1,1,0,0,1,.768.28,1.136,1.136,0,0,1,.26.8V6.06H5.066V5.839a.479.479,0,0,0-.09-.323.333.333,0,0,0-.263-.1q-.353,0-.353.412a.787.787,0,0,0,.132.437,2.452,2.452,0,0,0,.479.492,2.565,2.565,0,0,1,.61.67,1.435,1.435,0,0,1,.167.707,1.122,1.122,0,0,1-.273.812A1.052,1.052,0,0,1,4.681,9.227ZM6.7,5.476H5.965V4.861H8.15v.615H7.411V9.166H6.7ZM9.518,9.227a1.039,1.039,0,0,1-.784-.28,1.11,1.11,0,0,1-.27-.8V4.861h.707V8.194a.455.455,0,0,0,.093.32.41.41,0,0,0,.533,0,.455.455,0,0,0,.093-.32V4.861h.681V8.145a1.11,1.11,0,0,1-.27.8A1.039,1.039,0,0,1,9.518,9.227Zm1.555-4.366h1.079a1.056,1.056,0,0,1,.79.271,1.093,1.093,0,0,1,.263.793V8.1a1.093,1.093,0,0,1-.263.793,1.056,1.056,0,0,1-.79.271H11.072Zm1.066,3.689a.35.35,0,0,0,.267-.1.455.455,0,0,0,.093-.32V5.894a.455.455,0,0,0-.093-.32.35.35,0,0,0-.267-.1h-.36V8.551Zm1.542-3.689h.707v4.3h-.707Zm2.255,4.366a1.063,1.063,0,0,1-.8-.283,1.1,1.1,0,0,1-.276-.8V5.882a1.1,1.1,0,0,1,.276-.8,1.263,1.263,0,0,1,1.593,0,1.1,1.1,0,0,1,.276.8V8.145a1.1,1.1,0,0,1-.276.8A1.063,1.063,0,0,1,15.935,9.227Zm0-.615q.366,0,.366-.424V5.839q0-.424-.366-.424t-.366.424V8.188Q15.569,8.612,15.935,8.612Z" transform="translate(32.473 -2.435)"/></g></g></g></g></g></svg>