<?xml version="1.0" standalone="no"?>
<!DOCTYPE svg PUBLIC "-//W3C//DTD SVG 20010904//EN"
 "http://www.w3.org/TR/2001/REC-SVG-20010904/DTD/svg10.dtd">
<svg version="1.0" xmlns="http://www.w3.org/2000/svg"
 width="500.000000pt" height="500.000000pt" viewBox="0 0 500.000000 500.000000"
 preserveAspectRatio="xMidYMid meet">
<metadata>
Created by potrace 1.14, written by Peter Selinger 2001-2017
</metadata>
<g transform="translate(0.000000,500.000000) scale(0.100000,-0.100000)"
fill="#000000" stroke="none">
<path d="M1054 3435 c33 -50 93 -152 103 -176 20 -46 26 -115 13 -140 -7 -13
-97 -143 -199 -288 -257 -363 -273 -386 -330 -468 l-50 -73 232 0 232 0 33 48
c74 107 427 591 432 591 3 0 70 -106 150 -236 80 -129 166 -269 193 -311 26
-42 47 -80 47 -84 0 -4 108 -8 239 -8 l239 0 64 91 c34 50 69 97 76 104 6 8
12 16 12 19 0 2 26 41 58 86 l58 81 -1 129 c-1 72 0 130 1 130 1 0 30 -44 65
-97 35 -54 122 -188 195 -299 72 -111 137 -211 143 -223 12 -21 15 -21 341
-21 182 0 330 2 330 4 0 2 -75 129 -166 283 -92 153 -169 285 -171 293 -2 11
68 50 254 141 639 313 882 434 883 439 0 3 -138 5 -307 5 l-308 -1 -260 -128
c-143 -71 -375 -185 -515 -253 -140 -69 -258 -127 -262 -130 -14 -8 -9 12 7
32 9 11 58 81 110 155 51 74 121 174 154 221 34 48 61 91 61 96 0 12 -447 10
-458 -2 -10 -11 -327 -449 -406 -562 -28 -39 -56 -74 -61 -76 -9 -4 -378 577
-397 625 -4 10 -13 19 -20 19 -7 1 -196 2 -420 3 -407 1 -407 1 -394 -19z"/>
<path d="M1490 2103 c0 -104 2 -114 18 -111 13 2 17 14 18 48 0 26 6 46 13 48
19 6 28 -14 26 -59 -2 -31 2 -39 16 -39 16 0 18 11 17 114 -1 99 -3 114 -17
111 -11 -1 -16 -13 -17 -36 -2 -55 -3 -59 -19 -59 -8 0 -15 6 -16 13 0 6 -2
27 -2 46 -2 24 -7 35 -19 37 -16 2 -18 -9 -18 -113z"/>
<path d="M1625 2106 l1 -111 48 -3 c41 -3 47 -1 44 15 -2 11 -12 18 -28 18
-21 0 -26 5 -28 33 -3 29 -1 32 22 32 16 0 26 6 26 14 0 16 -27 29 -42 20 -5
-4 -8 7 -6 27 3 30 6 34 31 33 19 0 27 5 27 16 0 14 -10 17 -47 17 l-48 -1 0
-110z"/>
<path d="M1768 2207 c-2 -20 -4 -30 -11 -67 -4 -19 -9 -53 -12 -75 -4 -22 -8
-48 -11 -57 -4 -13 0 -18 15 -18 16 0 21 6 21 24 0 19 5 24 20 23 18 -1 25
-15 21 -39 0 -5 9 -8 20 -8 18 0 20 4 15 33 -3 17 -8 50 -12 72 -17 114 -19
118 -42 121 -12 2 -23 -2 -24 -9z m29 -73 c-3 -3 -1 -18 4 -32 7 -18 6 -27 -3
-33 -6 -4 -15 -6 -18 -4 -10 6 1 75 13 75 6 0 8 -3 4 -6z"/>
<path d="M1877 2213 c-4 -3 -7 -55 -7 -115 l0 -108 45 0 c33 0 45 4 45 15 0 8
-6 16 -12 16 -7 1 -20 2 -28 3 -12 1 -15 19 -15 99 0 91 -6 112 -28 90z"/>
<path d="M1943 2201 c1 -9 10 -15 20 -15 15 2 17 -10 17 -97 0 -89 2 -99 18
-99 16 0 18 10 17 95 0 88 3 100 28 96 4 0 7 7 7 18 0 16 -8 19 -55 18 -45 -1
-55 -4 -52 -16z"/>
<path d="M2070 2105 c0 -92 3 -115 14 -115 19 0 25 19 21 63 -3 31 -1 37 16
37 16 0 19 -7 19 -50 0 -42 3 -50 18 -50 16 0 18 11 18 112 -1 99 -3 113 -19
116 -14 3 -17 -4 -17 -48 0 -44 -3 -51 -17 -48 -14 2 -18 13 -17 43 0 37 -9
54 -28 55 -5 0 -8 -52 -8 -115z"/>
<path d="M2262 2192 c-12 -18 -13 -31 -5 -55 6 -21 6 -40 0 -54 -5 -12 -6 -38
-3 -57 6 -29 12 -36 29 -36 13 0 29 6 36 13 11 10 13 10 7 0 -5 -9 0 -13 13
-13 18 0 21 6 19 43 -2 23 0 47 4 52 12 20 -4 65 -23 65 -11 0 -19 -7 -19 -16
0 -26 -25 -9 -28 19 -3 23 0 27 22 27 28 0 38 10 28 27 -12 19 -64 10 -80 -15z
m58 -137 c0 -24 -5 -35 -14 -35 -16 0 -24 25 -18 53 8 32 32 19 32 -18z"/>
<path d="M2445 2200 c-24 -27 -18 -57 21 -100 20 -22 34 -47 32 -57 -4 -22
-33 -24 -33 -3 0 8 -8 16 -17 18 -20 4 -24 -19 -8 -49 15 -27 65 -25 84 4 20
30 10 69 -25 103 -30 28 -37 58 -18 69 6 4 13 -2 16 -14 5 -21 27 -28 37 -13
3 4 -1 19 -7 33 -15 29 -59 34 -82 9z"/>
<path d="M2564 2212 c-5 -4 -9 -54 -9 -112 0 -91 3 -105 18 -108 14 -3 17 4
17 42 0 38 3 46 18 46 45 0 72 91 36 121 -18 14 -66 21 -80 11z m60 -65 c-1
-12 -3 -25 -3 -29 -1 -5 -8 -8 -16 -8 -19 0 -21 66 -2 73 16 5 24 -8 21 -36z"/>
<path d="M2695 2206 c-16 -11 -19 -27 -19 -99 0 -95 10 -117 54 -117 41 0 51
21 53 102 1 88 -7 114 -36 122 -30 8 -31 8 -52 -8z m47 -28 c3 -7 4 -44 4 -83
-1 -55 -4 -70 -16 -70 -12 0 -16 16 -18 69 -2 38 -1 75 2 83 7 16 22 17 28 1z"/>
<path d="M2809 2212 c-1 -4 -2 -55 -3 -115 -1 -96 1 -107 17 -107 14 0 17 9
17 48 0 37 4 49 15 49 8 0 16 -7 16 -16 1 -9 2 -29 3 -46 1 -20 7 -31 19 -33
14 -3 17 4 17 45 0 27 -5 54 -11 60 -8 8 -8 13 0 17 16 10 13 72 -4 86 -17 14
-84 23 -86 12z m63 -67 c-6 -35 -32 -32 -32 3 0 16 3 32 7 35 12 13 30 -13 25
-38z"/>
<path d="M2920 2199 c0 -10 7 -16 18 -15 15 1 17 -11 20 -96 2 -86 5 -98 20
-98 16 0 18 11 18 98 -1 87 1 97 17 94 11 -2 17 4 17 16 0 16 -8 18 -55 18
-45 0 -55 -3 -55 -17z"/>
<path d="M3143 2193 c-25 -10 -15 -68 17 -98 32 -31 40 -65 15 -65 -8 0 -15 7
-15 15 0 8 -9 15 -20 15 -16 0 -18 -4 -11 -22 12 -33 35 -44 65 -30 37 16 35
60 -4 102 -33 35 -39 60 -15 60 8 0 15 -7 15 -15 0 -20 19 -19 26 0 13 32 -32
55 -73 38z"/>
<path d="M3230 2185 c0 -8 8 -15 18 -15 16 0 18 -9 17 -80 -1 -56 3 -81 12
-84 18 -7 21 2 20 84 0 62 3 76 16 78 10 2 17 10 17 18 0 10 -13 14 -50 14
-38 0 -50 -4 -50 -15z"/>
<path d="M3345 2115 c0 -100 15 -126 62 -109 28 9 28 11 31 102 2 77 0 92 -13
92 -12 0 -15 -15 -15 -85 0 -69 -3 -85 -15 -85 -16 0 -17 4 -16 103 0 57 -2
67 -17 67 -15 0 -17 -11 -17 -85z"/>
<path d="M3466 2113 c1 -115 0 -110 32 -108 58 4 62 11 62 96 0 86 -9 99 -67
99 l-29 0 2 -87z m64 -7 c0 -58 -11 -88 -27 -73 -7 7 -11 108 -5 125 2 6 10
12 18 12 11 0 14 -16 14 -64z"/>
<path d="M3583 2103 c2 -80 5 -98 17 -98 12 0 15 17 15 95 0 81 -2 95 -17 98
-15 3 -16 -8 -15 -95z"/>
<path d="M3651 2191 c-12 -8 -17 -73 -12 -158 1 -29 56 -42 79 -19 20 20 21
164 0 177 -17 11 -49 11 -67 0z m49 -91 c0 -56 -3 -70 -15 -70 -12 0 -15 14
-15 70 0 56 3 70 15 70 12 0 15 -14 15 -70z"/>
</g>
</svg>
